<svg width="60" height="32" viewBox="0 0 60 32" fill="none" xmlns="http://www.w3.org/2000/svg">
<g clip-path="url(#clip0)">
<path fill-rule="evenodd" clip-rule="evenodd" d="M32.1227 16.0011C32.1227 14.124 32.6207 12.2802 33.5662 10.6562C34.5117 9.03226 35.8712 7.68578 37.5072 6.753C39.1431 5.82023 40.9975 5.33425 42.8826 5.34424C44.7678 5.35423 46.6168 5.85983 48.2427 6.80989C49.8686 7.75995 51.2136 9.12077 52.1417 10.7547C53.0698 12.3885 53.5481 14.2375 53.5281 16.1146C53.5081 17.9916 52.9905 19.8301 52.0278 21.444C51.0651 23.0579 49.6914 24.39 48.0456 25.3054L51.3025 29.5913L53.1317 32.0008H60.0001L55.4063 25.953C57.6691 23.126 58.8992 19.6169 58.8945 16.0019C58.8945 7.16516 51.6972 0 42.8257 0C33.9542 0 26.7576 7.16516 26.7576 16.0011C26.7576 24.8371 33.9526 32.0008 42.8257 32.0008C44.732 32.0035 46.6235 31.6669 48.4108 31.0068L44.949 26.4484C43.3949 26.7604 41.7906 26.7249 40.252 26.3446C38.7133 25.9642 37.2786 25.2484 36.0515 24.2489C34.8244 23.2494 33.8354 21.9911 33.156 20.5648C32.4766 19.1385 32.1236 17.5798 32.1227 16.0011Z" fill="#0575E6"/>
<path fill-rule="evenodd" clip-rule="evenodd" d="M24.194 32L0 0H7.0219L31.0624 32" fill="#0575E6"/>
</g>
<defs>
<clipPath id="clip0">
<rect width="60" height="32" fill="white"/>
</clipPath>
</defs>
</svg>
