<svg width="140" height="61" viewBox="0 0 140 61" fill="none" xmlns="http://www.w3.org/2000/svg">
<path d="M84.4875 24.3911C84.5317 21.5871 83.5662 18.8613 81.7681 16.7141L81.7127 16.7635L82.0271 16.281L82.0888 16.3243C83.1888 14.8158 83.7729 12.9907 83.7537 11.1217C83.7537 7.04502 80.9789 2.27545 73.1414 2.27545H57.1768V10.3175H59.9516C60.0857 10.3175 60.2143 10.371 60.3092 10.4661C60.404 10.5612 60.4573 10.6903 60.4573 10.8248V25.4799C60.4573 25.6144 60.404 25.7435 60.3092 25.8386C60.2143 25.9337 60.0857 25.9872 59.9516 25.9872H57.1768V34.0787H73.1784C77.4147 34.0787 80.0601 32.4023 81.54 30.9856C82.4496 30.143 83.1797 29.1243 83.6863 27.9909C84.1929 26.8576 84.4654 25.633 84.4875 24.3911ZM73.1784 31.697H59.5693V28.3689H61.0739C61.5449 28.3689 61.9966 28.1812 62.3296 27.847C62.6627 27.5129 62.8498 27.0598 62.8498 26.5872V9.7422C62.8498 9.26968 62.6627 8.81652 62.3296 8.4824C61.9966 8.14828 61.5449 7.96057 61.0739 7.96057H59.5693V4.66333H73.1353C80.5719 4.66333 81.3735 9.17926 81.3735 11.1217C81.3865 12.5385 80.955 13.9236 80.1402 15.0809C77.4764 12.526 74.4179 9.82881 71.6368 9.82881C70.2276 9.83045 68.8766 10.3928 67.8801 11.3925C66.8836 12.3922 66.3231 13.7476 66.3214 15.1613C66.324 15.9088 66.4859 16.647 66.7963 17.3265C66.4852 18.0079 66.3233 18.7483 66.3214 19.4978C66.3315 20.8755 66.8702 22.1963 67.8256 23.1859C68.781 24.1754 70.0797 24.7577 71.4518 24.8118H71.6368H71.717C74.2575 24.719 77.2359 22.6219 80.3499 18.7369C81.58 20.3554 82.214 22.3509 82.1443 24.385C82.1135 24.6881 82.0086 31.629 73.1784 31.697ZM70.0521 17.2523C69.5171 16.9602 69.0945 16.4976 68.8511 15.9375C68.6076 15.3775 68.5573 14.752 68.708 14.16C68.8587 13.568 69.2018 13.0433 69.6832 12.6689C70.1645 12.2946 70.7565 12.0919 71.3655 12.093C71.6407 12.0961 71.9135 12.1441 72.1733 12.2352C73.6224 12.5631 75.7005 14.0911 78.7096 17.011C75.4045 21.2671 73.1229 22.2445 72.0562 22.4425C71.8312 22.5054 71.599 22.5386 71.3655 22.5415C70.7558 22.5455 70.1622 22.3447 69.6794 21.9711C69.1965 21.5975 68.8521 21.0726 68.7011 20.4799C68.55 19.8873 68.601 19.261 68.8458 18.7007C69.0906 18.1404 69.5153 17.6785 70.0521 17.3884L70.1754 17.3203L70.0521 17.2523Z" fill="#005F71"/>
<path d="M13.8335 44.0261H15.4491V47.8801H9.39376V44.0261H11.0032V42.1641H5.34863V44.0261H6.93955V53.6704H5.34863V55.5139H11.0032V53.6704H9.39376V49.8535H15.4491V53.6704H13.8335V55.5139H19.4942V53.6704H17.9033V44.0261H19.4942V42.1641H13.8335V44.0261Z" fill="#005F71"/>
<path d="M25.4756 45.6964C22.6083 45.6964 20.6227 47.7626 20.6227 50.7196C20.6075 51.3942 20.731 52.0648 20.9855 52.6894C21.2401 53.3141 21.6202 53.8794 22.1021 54.3501C22.5841 54.8209 23.1576 55.1869 23.7868 55.4255C24.416 55.664 25.0875 55.7699 25.7593 55.7366C27.1611 55.751 28.5247 55.2789 29.6194 54.4004L28.7006 52.7116C27.9012 53.3237 26.931 53.6698 25.9258 53.7014C25.562 53.7171 25.1988 53.6602 24.8571 53.534C24.5155 53.4078 24.2022 53.2148 23.9355 52.9662C23.6687 52.7176 23.4539 52.4184 23.3033 52.0858C23.1527 51.7532 23.0695 51.394 23.0584 51.0289H29.6749C29.6749 51.0289 29.7304 50.5031 29.7304 50.2247C29.7304 47.7069 28.232 45.6964 25.4756 45.6964ZM23.1139 49.6432C23.166 49.0644 23.4311 48.5258 23.8574 48.1324C24.2838 47.739 24.8409 47.519 25.4201 47.5152C26.4314 47.5152 27.27 48.307 27.27 49.6185L23.1139 49.6432Z" fill="#005F71"/>
<path d="M35.3911 48.2513H35.3541C35.3812 48.0463 35.3935 47.8395 35.3911 47.6327V47.0698C35.3911 46.2594 34.9656 45.9067 34.1208 45.9067H31.6543V47.6884H32.7272C32.7827 47.6837 32.8385 47.6912 32.8907 47.7103C32.943 47.7295 32.9904 47.7599 33.0298 47.7993C33.0691 47.8388 33.0994 47.8864 33.1185 47.9388C33.1376 47.9913 33.1451 48.0472 33.1404 48.1028V53.7014H31.7221V55.4892H36.8587V53.7014H35.5206V51.6414C35.5206 49.835 36.3469 48.1338 38.2831 48.1338C38.4769 48.1331 38.6706 48.1455 38.8628 48.1709V45.8201C38.72 45.7967 38.5757 45.7843 38.4311 45.783C37.7283 45.8154 37.0541 46.0725 36.5072 46.5165C35.9603 46.9606 35.5692 47.5684 35.3911 48.2513Z" fill="#005F71"/>
<path d="M46.8481 53.7014H44.1534C43.7773 53.7014 43.3641 53.7385 43.3641 53.7385V53.7014C43.5646 53.5386 43.7484 53.3562 43.9129 53.157L48.7103 47.4409V45.9253H40.5523V49.0988H42.5748V47.7069H45.0414C45.4175 47.7069 45.8492 47.6698 45.8492 47.6698V47.7069C45.6518 47.8711 45.4702 48.0533 45.3065 48.2513L40.4659 53.9921V55.5139H48.8892V52.3528H46.8481V53.7014Z" fill="#005F71"/>
<path d="M59.9146 48.4988V48.4617C60.4228 48.1828 60.844 47.7681 61.1314 47.2636C61.4188 46.759 61.5611 46.1844 61.5425 45.6036C61.5655 44.9416 61.3833 44.2886 61.0211 43.7347C60.6589 43.1808 60.1345 42.7531 59.52 42.5105C58.7578 42.2356 57.9486 42.1157 57.1398 42.1579H51.0289V44.0138H52.6198V53.7014H51.0289V55.5572H57.4358C58.1073 55.5792 58.7783 55.502 59.4275 55.3284C60.2016 55.0961 60.8787 54.616 61.3553 53.9614C61.8318 53.3068 62.0817 52.5137 62.0667 51.7032C62.1238 51.0034 61.9419 50.3048 61.5508 49.7224C61.1597 49.14 60.5827 48.7085 59.9146 48.4988ZM55.0741 44.1684H57.1398C57.5304 44.1504 57.9202 44.2202 58.2806 44.3726C58.536 44.5308 58.743 44.7565 58.879 45.0249C59.0149 45.2933 59.0746 45.5942 59.0513 45.8944C59.0765 46.1209 59.0525 46.3503 58.9808 46.5666C58.9092 46.7829 58.7917 46.9811 58.6364 47.1475C58.4811 47.3138 58.2917 47.4445 58.0812 47.5304C57.8708 47.6163 57.6442 47.6554 57.4173 47.6451H55.0741V44.1684ZM58.5087 53.4168C58.2025 53.5276 57.8783 53.5801 57.5529 53.5715H55.0864V49.569H57.6578C57.9147 49.5524 58.1722 49.5912 58.4128 49.6829C58.6535 49.7746 58.8718 49.917 59.053 50.1005C59.2342 50.284 59.374 50.5044 59.4631 50.7467C59.5521 50.989 59.5884 51.2477 59.5693 51.5053C59.5964 51.8886 59.5102 52.2715 59.3216 52.606C59.1329 52.9404 58.8502 53.2117 58.5087 53.3859V53.4168Z" fill="#005F71"/>
<path d="M68.5167 45.6964C65.6493 45.6964 63.6638 47.7626 63.6638 50.7196C63.6484 51.3959 63.7724 52.0681 64.028 52.694C64.2837 53.32 64.6655 53.8862 65.1494 54.3572C65.6334 54.8282 66.2092 55.1939 66.8406 55.4313C67.472 55.6686 68.1455 55.7726 68.8188 55.7366C70.2206 55.751 71.5843 55.2789 72.6789 54.4004L71.7602 52.7116C70.9629 53.3311 69.9929 53.6858 68.9853 53.7261C68.6216 53.7418 68.2583 53.685 67.9167 53.5588C67.575 53.4326 67.2617 53.2396 66.995 52.991C66.7283 52.7424 66.5134 52.4431 66.3628 52.1105C66.2123 51.778 66.129 51.4187 66.118 51.0537H72.7344C72.7344 51.0537 72.7899 50.5278 72.7899 50.2495C72.7714 47.7069 71.2854 45.6964 68.5167 45.6964ZM66.155 49.6432C66.2128 49.0689 66.4803 48.5363 66.9061 48.148C67.3319 47.7597 67.8858 47.5431 68.4612 47.5399C69.4724 47.5399 70.3111 48.3317 70.3111 49.6432H66.155Z" fill="#005F71"/>
<path d="M81.6386 46.8223C81.6374 46.9307 81.6498 47.0387 81.6756 47.144H81.6386C81.1145 46.1294 79.8196 45.6964 78.6788 45.6964C75.9224 45.6964 74.4425 47.843 74.4425 50.4722C74.4425 53.1013 75.9779 55.3221 78.7589 55.3221C79.2797 55.3569 79.8004 55.2521 80.2674 55.0184C80.7345 54.7846 81.1311 54.4304 81.4166 53.9921H81.4598C81.4345 54.1601 81.4201 54.3295 81.4166 54.4994V55.118C81.4166 56.8873 80.1834 57.5244 78.7219 57.5244C77.8055 57.5166 76.9021 57.3053 76.0766 56.9058L75.3243 58.6503C76.3829 59.1845 77.5494 59.4681 78.7343 59.4793C81.2008 59.4793 83.7783 58.242 83.7783 54.9448V48.0843C83.7762 48.0315 83.7855 47.9788 83.8056 47.9299C83.8257 47.8811 83.8562 47.8372 83.8949 47.8013C83.9336 47.7654 83.9796 47.7384 84.0298 47.7221C84.0799 47.7058 84.133 47.7006 84.1853 47.7069H85.1041V45.9253H82.7239C81.9778 45.9253 81.6386 46.315 81.6386 46.8223ZM79.2399 53.3116C77.7045 53.3116 76.8412 52.0744 76.8412 50.3979C76.8412 48.7215 77.649 47.7255 79.0919 47.7255C80.3622 47.7255 81.4536 48.3441 81.4536 50.4907C81.4536 52.6373 80.3622 53.3116 79.2399 53.3116Z" fill="#005F71"/>
<path d="M89.9077 52.3157V42.1641H86.0846V43.9457H87.5645V52.4641C87.5645 55.0809 88.9704 55.5572 90.4874 55.5572C90.776 55.5567 91.0643 55.5381 91.3507 55.5016V53.5838C91.3507 53.5838 91.1595 53.5838 90.9005 53.5838C90.0927 53.6333 89.9077 53.1817 89.9077 52.3157Z" fill="#005F71"/>
<path d="M97.3258 45.6964C94.4585 45.6964 92.4729 47.7626 92.4729 50.7196C92.4577 51.3942 92.5812 52.0648 92.8357 52.6894C93.0903 53.3141 93.4704 53.8794 93.9523 54.3501C94.4343 54.8209 95.0078 55.1869 95.637 55.4255C96.2662 55.664 96.9377 55.7699 97.6095 55.7366C99.0218 55.7582 100.398 55.2857 101.5 54.4004L100.582 52.7116C99.7805 53.3249 98.808 53.6711 97.8007 53.7014C97.4371 53.7162 97.0742 53.6588 96.7329 53.5323C96.3916 53.4058 96.0787 53.2127 95.8121 52.9643C95.5456 52.7159 95.3307 52.4169 95.1798 52.0848C95.029 51.7526 94.9452 51.3937 94.9333 51.0289H101.5C101.5 51.0289 101.556 50.5031 101.556 50.2247C101.581 47.7069 100.082 45.6964 97.3258 45.6964ZM94.9641 49.6432C95.022 49.0689 95.2895 48.5363 95.7153 48.148C96.1411 47.7597 96.695 47.5431 97.2704 47.5399C98.2816 47.5399 99.1203 48.3317 99.1203 49.6432H94.9641Z" fill="#005F71"/>
<path d="M107.47 42.1641H105.071V44.286H107.47V42.1641Z" fill="#005F71"/>
<path d="M107.47 45.9191H103.609V47.7069H105.089V53.7261H103.702V55.5139H108.838V53.7261H107.47V45.9191Z" fill="#005F71"/>
<path d="M114.178 51.7527V47.7069H116.355V45.9253H114.178V43.3085H111.878V45.9253H110.337V47.7069H111.798V51.994C111.798 55.2108 114.444 55.6067 115.794 55.6067C116.038 55.6086 116.281 55.59 116.522 55.551V53.5962C116.522 53.5962 116.355 53.5962 116.096 53.5962C115.844 53.625 115.589 53.5978 115.349 53.5165C115.109 53.4352 114.889 53.3018 114.706 53.1259C114.523 52.9499 114.381 52.7356 114.29 52.4983C114.198 52.261 114.16 52.0064 114.178 51.7527Z" fill="#005F71"/>
<path d="M122.99 45.6964C120.123 45.6964 118.137 47.7626 118.137 50.7196C118.122 51.3942 118.246 52.0648 118.5 52.6894C118.755 53.3141 119.135 53.8794 119.617 54.3501C120.099 54.8209 120.672 55.1869 121.301 55.4255C121.931 55.664 122.602 55.7699 123.274 55.7366C124.676 55.751 126.039 55.2789 127.134 54.4004L126.215 52.7116C125.418 53.3311 124.448 53.6858 123.44 53.7261C123.077 53.7418 122.713 53.6849 122.372 53.5588C122.03 53.4326 121.717 53.2396 121.45 52.991C121.183 52.7424 120.968 52.4431 120.818 52.1105C120.667 51.778 120.584 51.4187 120.573 51.0537H127.189C127.189 51.0537 127.245 50.5278 127.245 50.2495C127.245 47.7069 125.747 45.6964 122.99 45.6964ZM120.616 49.6432C120.674 49.0689 120.942 48.5363 121.367 48.148C121.793 47.7597 122.347 47.5431 122.922 47.5399C123.934 47.5399 124.772 48.3317 124.772 49.6432H120.616Z" fill="#005F71"/>
<path d="M135.89 45.7892C135.187 45.822 134.512 46.0799 133.965 46.5252C133.418 46.9704 133.027 47.5797 132.85 48.2637H132.813C132.84 48.0586 132.853 47.8519 132.85 47.6451V47.0821C132.85 46.2717 132.419 45.9191 131.58 45.9191H129.083V47.7008H130.155C130.211 47.6959 130.266 47.7034 130.318 47.7226C130.37 47.7418 130.417 47.7723 130.456 47.8119C130.495 47.8515 130.525 47.8992 130.543 47.9516C130.562 48.0041 130.568 48.0599 130.562 48.1152V53.7014H129.181V55.4892H134.312V53.7014H132.949V51.6414C132.949 49.835 133.812 48.14 135.742 48.14C135.938 48.1392 136.134 48.1516 136.328 48.1771V45.8263C136.183 45.8025 136.037 45.7901 135.89 45.7892Z" fill="#005F71"/>
</svg>
