<svg width="14" height="14" viewBox="0 0 14 14" fill="none" xmlns="http://www.w3.org/2000/svg">
<path fill-rule="evenodd" clip-rule="evenodd" d="M7 0.447266C3.27208 0.447266 0.25 3.46934 0.25 7.19727C0.25 10.9252 3.27208 13.9473 7 13.9473C10.7279 13.9473 13.75 10.9252 13.75 7.19727C13.75 3.46934 10.7279 0.447266 7 0.447266ZM1.75 7.19727C1.75 4.29777 4.10051 1.94727 7 1.94727C9.8995 1.94727 12.25 4.29777 12.25 7.19727C12.25 10.0968 9.8995 12.4473 7 12.4473C4.10051 12.4473 1.75 10.0968 1.75 7.19727ZM7.75 4.5306C7.75 4.11639 7.41421 3.7806 7 3.7806C6.58579 3.7806 6.25 4.11639 6.25 4.5306V7.19727C6.25 7.44803 6.37533 7.6822 6.58397 7.8213L8.58397 9.15464C8.92862 9.3844 9.39427 9.29127 9.62404 8.94662C9.8538 8.60198 9.76067 8.13632 9.41603 7.90656L7.75 6.79588V4.5306Z" fill="#00768C"/>
</svg>
