<svg width="14" height="15" viewBox="0 0 14 15" fill="none" xmlns="http://www.w3.org/2000/svg">
<path fill-rule="evenodd" clip-rule="evenodd" d="M5.08333 0.863281C5.08333 0.449068 4.74755 0.113281 4.33333 0.113281C3.91912 0.113281 3.58333 0.449068 3.58333 0.863281V1.66189C1.71431 2.24497 0.343628 3.94856 0.254522 5.98942C0.249991 6.0932 0.249995 6.21153 0.25 6.39764V6.39768V6.41884V8.19661V8.22399V8.22403C0.249997 9.1327 0.249995 9.85287 0.289801 10.4363C0.330467 11.0323 0.41517 11.5402 0.611574 12.0144C1.09367 13.1782 2.01837 14.1029 3.18226 14.585C3.65642 14.7814 4.16431 14.8661 4.76033 14.9068C5.34374 14.9466 6.0639 14.9466 6.97256 14.9466H6.97262H7H7.02739H7.02744C7.9361 14.9466 8.65626 14.9466 9.23968 14.9068C9.83569 14.8661 10.3436 14.7814 10.8177 14.585C11.9816 14.1029 12.9063 13.1782 13.3884 12.0144C13.5848 11.5402 13.6695 11.0323 13.7102 10.4363C13.75 9.85287 13.75 9.13272 13.75 8.22405V8.224V8.19661V8.16923V8.16918C13.75 7.26051 13.75 6.54036 13.7102 5.95694C13.6695 5.36092 13.5848 4.85303 13.3884 4.37887C12.9063 3.21498 11.9816 2.29028 10.8177 1.80819C10.687 1.75403 10.5537 1.70836 10.4167 1.66978V0.863281C10.4167 0.449068 10.0809 0.113281 9.66667 0.113281C9.25245 0.113281 8.91667 0.449068 8.91667 0.863281V1.46879C8.39535 1.44661 7.7752 1.44661 7.02738 1.44661H7.02738L7 1.44661H5.22222L5.20106 1.44661L5.08333 1.44666V0.863281ZM9.66667 3.61328C9.2889 3.61328 8.97637 3.33399 8.9243 2.97063C8.43224 2.94692 7.81941 2.94661 7 2.94661H5.22222L5.07875 2.9467C5.03726 3.32165 4.71935 3.61328 4.33333 3.61328C4.0512 3.61328 3.80545 3.45749 3.67741 3.22725C2.58232 3.71544 1.80829 4.79056 1.75309 6.05485C1.75018 6.12158 1.75 6.20459 1.75 6.41884V8.19661C1.75 9.13876 1.75041 9.80781 1.78632 10.3342C1.82178 10.8538 1.88931 11.1794 1.99739 11.4403C2.32725 12.2367 2.95994 12.8694 3.75628 13.1992C4.0172 13.3073 4.34279 13.3748 4.86243 13.4103C5.38881 13.4462 6.05786 13.4466 7 13.4466C7.94215 13.4466 8.61119 13.4462 9.13757 13.4103C9.65721 13.3748 9.9828 13.3073 10.2437 13.1992C11.0401 12.8694 11.6728 12.2367 12.0026 11.4403C12.1107 11.1794 12.1782 10.8538 12.2137 10.3342C12.2496 9.80781 12.25 9.13876 12.25 8.19661C12.25 7.25447 12.2496 6.58542 12.2137 6.05905C12.1782 5.5394 12.1107 5.21382 12.0026 4.95289C11.6837 4.18292 11.0816 3.56595 10.3223 3.22777C10.1942 3.45773 9.94859 3.61328 9.66667 3.61328ZM3.66667 4.77995C3.25245 4.77995 2.91667 5.11573 2.91667 5.52995C2.91667 5.94416 3.25245 6.27995 3.66667 6.27995H10.3333C10.7475 6.27995 11.0833 5.94416 11.0833 5.52995C11.0833 5.11573 10.7475 4.77995 10.3333 4.77995H3.66667Z" fill="#00768C"/>
</svg>
