<svg width="10" height="14" viewBox="0 0 10 14" fill="none" xmlns="http://www.w3.org/2000/svg">
<path fill-rule="evenodd" clip-rule="evenodd" d="M1.46988 4.7276C-0.109663 3.14805 1.00903 0.447266 3.24285 0.447266H5.00021H5.01599C5.48909 0.447264 5.86515 0.447263 6.15665 0.45791C6.44039 0.468274 6.71228 0.489807 6.94722 0.558858C8.62976 1.05336 9.4258 2.97519 8.58574 4.51459C8.46844 4.72954 8.29141 4.93702 8.0981 5.14499C7.89951 5.35863 7.6336 5.62454 7.29908 5.95906L7.2879 5.97024L3.77319 9.48495C3.42501 9.83313 3.17865 10.0797 3.001 10.2708C2.81585 10.47 2.75196 10.5608 2.73139 10.5985C2.34954 11.2982 2.71138 12.1718 3.47617 12.3965C3.51736 12.4086 3.62677 12.4277 3.89853 12.4376C4.1593 12.4471 4.50781 12.4473 5.00021 12.4473H6.75757C7.65503 12.4473 8.10449 11.3622 7.46988 10.7276L5.96988 9.2276C5.67699 8.9347 5.67699 8.45983 5.96988 8.16694C6.26278 7.87404 6.73765 7.87404 7.03054 8.16694L8.53054 9.66694C10.1101 11.2465 8.99139 13.9473 6.75757 13.9473H5.00021H4.98435C4.51129 13.9473 4.13526 13.9473 3.84378 13.9366C3.56004 13.9263 3.28815 13.9047 3.0532 13.8357C1.37067 13.3412 0.574624 11.4193 1.41469 9.87995C1.53199 9.66499 1.70902 9.45751 1.90233 9.24954C2.10092 9.03589 2.36684 8.76998 2.70138 8.43544L2.71253 8.42429L6.22724 4.90958C6.57542 4.5614 6.82178 4.31487 6.99943 4.12375C7.18457 3.92457 7.24847 3.83374 7.26904 3.79605C7.65089 3.09632 7.28905 2.22276 6.52426 1.99799C6.48307 1.98588 6.37365 1.96684 6.1019 1.95691C5.84113 1.94739 5.49261 1.94727 5.00021 1.94727H3.24285C2.34539 1.94727 1.89594 3.03233 2.53054 3.66694L4.03054 5.16694C4.32344 5.45983 4.32344 5.9347 4.03054 6.2276C3.73765 6.52049 3.26278 6.52049 2.96988 6.2276L1.46988 4.7276Z" fill="#00768C"/>
</svg>
