<svg width="14" height="14" viewBox="0 0 14 14" fill="none" xmlns="http://www.w3.org/2000/svg">
<path fill-rule="evenodd" clip-rule="evenodd" d="M7 13.9473C6.58579 13.9473 6.25 13.6115 6.25 13.1973V10.9685C6.25 10.5543 6.58579 10.2185 7 10.2185C7.41422 10.2185 7.75 10.5543 7.75 10.9685V13.1973C7.75 13.6115 7.41422 13.9473 7 13.9473ZM7 4.17621C6.58579 4.17621 6.25 3.84042 6.25 3.42621V1.19727C6.25 0.783052 6.58579 0.447266 7 0.447266C7.41421 0.447266 7.75 0.783051 7.75 1.19727V3.42621C7.75 3.84042 7.41421 4.17621 7 4.17621ZM2.22716 10.9096C1.93426 11.2025 1.93426 11.6773 2.22716 11.9702C2.52005 12.2631 2.99492 12.2631 3.28782 11.9702L4.86379 10.3943C5.15669 10.1014 5.15669 9.62649 4.86379 9.3336C4.5709 9.04071 4.09602 9.04071 3.80313 9.3336L2.22716 10.9096ZM9.13634 4.00039C8.84344 4.29329 8.84344 4.76816 9.13634 5.06105C9.42923 5.35395 9.9041 5.35395 10.197 5.06105L11.7731 3.48495C12.066 3.19206 12.066 2.71719 11.7731 2.42429C11.4802 2.1314 11.0053 2.1314 10.7124 2.42429L9.13634 4.00039ZM1 6.44726C0.585786 6.44726 0.25 6.78305 0.25 7.19726C0.25 7.61148 0.585786 7.94726 1 7.94726H3.22877C3.64298 7.94726 3.97877 7.61148 3.97877 7.19726C3.97877 6.78305 3.64298 6.44726 3.22877 6.44726H1ZM10.7711 6.44726C10.3568 6.44726 10.0211 6.78305 10.0211 7.19726C10.0211 7.61148 10.3568 7.94726 10.7711 7.94726H13C13.4142 7.94726 13.75 7.61148 13.75 7.19726C13.75 6.78305 13.4142 6.44726 13 6.44726H10.7711ZM10.7123 11.9702C11.0052 12.2631 11.4801 12.2631 11.773 11.9702C12.0659 11.6773 12.0659 11.2025 11.773 10.9096L10.197 9.3336C9.9041 9.04071 9.42923 9.04071 9.13633 9.3336C8.84344 9.62649 8.84344 10.1014 9.13633 10.3943L10.7123 11.9702ZM3.80313 5.06106C4.09602 5.35395 4.5709 5.35395 4.86379 5.06106C5.15668 4.76816 5.15668 4.29329 4.86379 4.0004L3.28769 2.4243C2.9948 2.1314 2.51992 2.1314 2.22703 2.4243C1.93414 2.71719 1.93414 3.19206 2.22703 3.48496L3.80313 5.06106Z" fill="#00768C"/>
</svg>
