<svg width="15" height="15" viewBox="0 0 15 15" fill="none" xmlns="http://www.w3.org/2000/svg">
<path fill-rule="evenodd" clip-rule="evenodd" d="M8.1734 0.783021C8.04739 0.526107 7.78618 0.363281 7.50002 0.363281C7.21387 0.363281 6.95266 0.526107 6.82665 0.78302L4.87541 4.76142L1.01579 5.32961C0.735059 5.37094 0.50169 5.56716 0.412785 5.83662C0.323879 6.10609 0.394661 6.40266 0.595678 6.60293L3.48928 9.48578L2.51863 13.7611C2.45408 14.0454 2.56016 14.3414 2.79064 14.52C3.02112 14.6986 3.33421 14.7274 3.59342 14.5939L7.50002 12.5819L11.4066 14.5939C11.6658 14.7274 11.9789 14.6986 12.2094 14.52C12.4399 14.3414 12.546 14.0454 12.4814 13.7611L11.5108 9.48578L14.4044 6.60293C14.6054 6.40266 14.6762 6.10609 14.5873 5.83662C14.4984 5.56716 14.265 5.37094 13.9843 5.32961L10.1246 4.76142L8.1734 0.783021Z" fill="#00768C"/>
</svg>
