<svg width="15" height="15" viewBox="0 0 15 15" fill="none" xmlns="http://www.w3.org/2000/svg">
<path fill-rule="evenodd" clip-rule="evenodd" d="M1.875 7.19727C1.875 4.09066 4.3934 1.57227 7.5 1.57227C10.6066 1.57227 13.125 4.09066 13.125 7.19727C13.125 10.3039 10.6066 12.8223 7.5 12.8223C4.3934 12.8223 1.875 10.3039 1.875 7.19727ZM7.5 0.0722656C3.56497 0.0722656 0.375 3.26224 0.375 7.19727C0.375 11.1323 3.56497 14.3223 7.5 14.3223C11.435 14.3223 14.625 11.1323 14.625 7.19727C14.625 3.26224 11.435 0.0722656 7.5 0.0722656ZM5.90533 4.54194C5.61244 4.24904 5.13756 4.24904 4.84467 4.54194C4.55178 4.83483 4.55178 5.3097 4.84467 5.6026L6.43934 7.19727L4.84467 8.79193C4.55178 9.08483 4.55178 9.5597 4.84467 9.8526C5.13756 10.1455 5.61244 10.1455 5.90533 9.8526L7.5 8.25793L9.09467 9.8526C9.38756 10.1455 9.86244 10.1455 10.1553 9.8526C10.4482 9.5597 10.4482 9.08483 10.1553 8.79193L8.56066 7.19727L10.1553 5.6026C10.4482 5.3097 10.4482 4.83483 10.1553 4.54194C9.86244 4.24904 9.38756 4.24904 9.09467 4.54194L7.5 6.13661L5.90533 4.54194Z" fill="#F45C5C"/>
</svg>
